<?xml version="1.0" encoding="UTF-8"?>
<!DOCTYPE svg PUBLIC "-//W3C//DTD SVG 1.1//EN" "http://www.w3.org/Graphics/SVG/1.1/DTD/svg11.dtd">
<!-- Creator: CorelDRAW -->
<svg xmlns="http://www.w3.org/2000/svg" xml:space="preserve" width="512px" height="512px" version="1.1" style="shape-rendering:geometricPrecision; text-rendering:geometricPrecision; image-rendering:optimizeQuality; fill-rule:evenodd; clip-rule:evenodd"
viewBox="0 0 512 512"
 xmlns:xlink="http://www.w3.org/1999/xlink">
 <g id="Layer_x0020_1">
  <metadata id="CorelCorpID_0Corel-Layer"/>
  <path fill="#888888" d="M360 486l-351 0c-5,0 -9,-4 -9,-8l0 -444c0,-4 4,-8 9,-8l351 0c5,0 8,4 8,8l0 444c0,4 -3,8 -8,8zm-53 -69c3,0 5,-2 5,-4 0,-3 -2,-5 -5,-5l-246 0c-3,0 -5,2 -5,5 0,2 2,4 5,4l246 0zm0 -62c3,0 5,-2 5,-5 0,-3 -2,-5 -5,-5l-246 0c-3,0 -5,2 -5,5 0,3 2,5 5,5l246 0zm0 -63c3,0 5,-2 5,-5 0,-2 -2,-4 -5,-4l-246 0c-3,0 -5,2 -5,4 0,3 2,5 5,5l246 0zm0 -63c3,0 5,-2 5,-4 0,-3 -2,-5 -5,-5l-246 0c-3,0 -5,2 -5,5 0,2 2,4 5,4l246 0zm0 -62c3,0 5,-2 5,-5 0,-3 -2,-5 -5,-5l-246 0c-3,0 -5,2 -5,5 0,3 2,5 5,5l246 0zm0 -63c3,0 5,-2 5,-5 0,-2 -2,-4 -5,-4l-246 0c-3,0 -5,2 -5,4 0,3 2,5 5,5l246 0z"/>
  <path fill="#888888" d="M427 435c-3,0 -7,-2 -8,-5l-26 -64c1,1 3,1 5,1l57 0c2,0 4,0 6,-1l-26 64c-1,3 -4,5 -8,5 0,0 0,0 0,0zm-37 -288l0 -34c0,-24 18,-36 37,-36 18,0 36,12 36,36l0 34c-2,-1 -5,-2 -8,-2l-57 0c-3,0 -6,1 -8,2z"/>
  <path fill="#888888" d="M455 359l-57 0c-5,0 -8,-4 -8,-8l0 -190c0,-4 3,-8 8,-8l57 0c5,0 8,4 8,8l0 190c0,4 -3,8 -8,8z"/>
  <path fill="#888888" d="M503 259c-5,0 -8,-4 -8,-9l0 -80 -40 0c-5,0 -9,-4 -9,-9 0,-4 4,-8 9,-8l48 0c5,0 9,4 9,8l0 89c0,5 -4,9 -9,9z"/>
 </g>
</svg>
