<?xml version="1.0" encoding="UTF-8" standalone="no"?> 
<svg id="line" xmlns="http://www.w3.org/2000/svg" viewBox="0 0 64 64">
<path fill="#888888" d="M58.59016,43.08844a3.47845,3.47845,0,0,0-4.51212-.757L45.144,47.86632a6.64389,6.64389,0,0,1-5.04521.50663A3.63851,3.63851,0,0,0,36.963,44.13806c-2.69881-.4212-6.96772-.85678-9.27271-1.0784a6.47116,6.47116,0,0,1-2.32418-.67063l-2.93533-1.49669c-2.31806-1.36981-5.96348-1.01826-8.55781-1.05242a4.18311,4.18311,0,0,0-3.396-1.4574H8.56536c-2.16012,0-3.852,1.206-3.852,2.74584V53.91927c0,1.5389,1.69192,2.74488,3.852,2.74488,1.73442.05759,4.08472.07431,5.14422-1.23981l9.5022,3.72181a12.27838,12.27838,0,0,0,6.22036.733L43.42087,57.9584A9.50357,9.50357,0,0,0,48.30716,55.792l9.91555-8.50232A2.98485,2.98485,0,0,0,58.59016,43.08844ZM10.477,54.69927H8.56536c-1.22565,0-1.88716-.55358-1.88716-.78V41.12836c0-.22642.66151-.781,1.88716-.781H10.477c1.22566,0,1.88717.55454,1.88717.781V53.91927C12.36416,54.14569,11.70265,54.69927,10.477,54.69927Zm46.46682-8.90144-9.91458,8.50232a7.544,7.544,0,0,1-3.877,1.71256L29.16158,57.93345a10.30582,10.30582,0,0,1-5.23024-.615L14.329,53.55775v-11.753c2.16719.053,5.28579-.29832,7.21.83862,1.71986.83819,4.0108,2.28961,5.96373,2.37154,2.2824.2207,6.50718.65148,9.15708,1.065a1.63921,1.63921,0,0,1,.61587,3.097L23.79606,47.85865a.98248.98248,0,0,0-.19086,1.95529L37.342,51.15711a2.881,2.881,0,0,0,1.81535-.95756,24.80225,24.80225,0,0,0,2.50681.37133,7.22208,7.22208,0,0,0,4.515-1.03518l8.93215-5.5339C56.23124,43.20434,58.1709,44.66461,56.94381,45.79783Z"/><path fill="#888888" d="M28.96154,21.29248a.50743.50743,0,0,0-.76273,0L24.13953,26.2987a.49435.49435,0,0,0,.38138.80014h1.53841v3.26488a.49093.49093,0,0,0,.49122.49122h4.05928a.49094.49094,0,0,0,.49122-.49122V27.09885h1.53842a.49409.49409,0,0,0,.38134-.80016Zm1.64828,4.82393a.49094.49094,0,0,0-.49122.49122v3.26488H27.04176V26.60763c-.00719-.719-1.052-.44-1.49-.49124l3.02841-3.735,3.02839,3.735Z"/><path fill="#888888" d="M30.60982,32.35452H26.55054a.49093.49093,0,0,0-.49122.49122v2.1654a.49094.49094,0,0,0,.49122.49122h4.05928a.49094.49094,0,0,0,.49122-.49122v-2.1654A.49094.49094,0,0,0,30.60982,32.35452Zm-.49122,2.1654H27.04176V33.337H30.1186Z"/><path fill="#888888" d="M22.56033,38.31728h24.0765a1.04473,1.04473,0,0,0,.72723-.32141L54.88779,29.72a.92486.92486,0,0,0,.06631-.11117,1.05231,1.05231,0,0,0,.18984-.54987V4.98244A1.01671,1.01671,0,0,0,54.16148,4L30.085,4a1.19615,1.19615,0,0,0-.7277.32143l-7.52374,8.27588a1.036,1.036,0,0,0-.22713.5197c-.09345.1044.00734,24.08826-.02864,24.21807A.98225.98225,0,0,0,22.56033,38.31728Zm7.95828-32.3524h6.37315l-5.73742,6.311H24.7812Zm12.39155,0-5.73741,6.311H33.80994l5.7382-6.311Zm9.02905,0-5.73742,6.311H39.82912l5.73742-6.311Zm1.23986,22.71268-5.5598,6.11567V13.63869L53.17907,7.523ZM32.57134,14.24078h4.054v5.178h-4.054ZM45.65439,36.3524H23.54277V14.24078h7.06369v6.1604a.98218.98218,0,0,0,.98244.98244h6.01888a.98187.98187,0,0,0,.98244-.98244v-6.1604h7.06417Z"/></svg>